PathFileType	4	(X/Y/Z)	D:\TRACE\v60_Jaco2_6-2-23\JustArmDRS_Motion3_4-platform.trc
DataRate	CameraRate	NumFrames	NumMarkers	Units	OrigDataRate	OrigDataStartFrame	OrigNumFrames
100.00	100.00	      42	5	mm	100.00	2626	      7000
Frame#	Time	Left_Front			Right_Front			Left_Aft			Right_Aft			Post			
		X1	Y1	Z1	X2	Y2	Z2	X3	Y3	Z3	X4	Y4	Z4	X5	Y5	Z5	

2626	26.250	-793.17139	74.20860	-632.10614	777.15497	72.08891	-609.45862	-724.80505	-34.16045	496.35605	689.65729	-45.10266	601.67407	1.00953	1396.86719	-816.98395	
2627	26.260	-793.37646	74.12638	-632.22058	776.88947	71.96417	-609.52155	-725.18091	-34.07600	496.24429	689.41058	-45.05367	601.61646	0.96003	1396.71130	-817.24762	
2628	26.270	-793.96106	73.88381	-632.63086	776.64124	71.86890	-609.56488	-725.49902	-33.91277	496.21753	689.22870	-44.94198	601.57092	0.75465	1396.77600	-817.56982	
2629	26.280	-794.18457	73.82020	-632.67999	776.29987	71.77369	-609.60437	-725.77271	-33.80167	496.27832	688.97729	-44.85038	601.50421	0.26614	1396.46716	-817.95685	
2630	26.290	-794.48108	73.64675	-632.81085	775.84192	71.64558	-609.72205	-726.11041	-33.68214	496.34818	688.50665	-44.72753	601.51740	-0.23334	1396.30859	-818.21082	
2631	26.300	-794.81842	73.57307	-632.74097	775.52277	71.46524	-609.79565	-726.34351	-33.72342	496.37347	688.15625	-44.61074	601.52698	-0.55514	1396.05920	-818.40186	
2632	26.310	-795.36432	73.82914	-632.23590	775.24030	71.29054	-609.86743	-726.44775	-33.74199	496.31308	687.95850	-44.46150	601.37927	-0.83026	1395.87781	-818.74011	
2633	26.320	-795.67322	73.60203	-632.47430	775.05963	71.10669	-609.85864	-726.63391	-33.72942	496.28119	687.86426	-44.36489	601.37219	-1.09252	1395.69092	-819.07422	
2634	26.330	-795.84869	73.40713	-632.71967	774.87042	70.97313	-609.94562	-726.97870	-33.44548	496.24066	687.72217	-44.22282	601.34363	-1.23978	1395.33093	-819.39343	
2635	26.340	-796.09119	73.24205	-632.79041	774.72235	70.83095	-610.02350	-727.26355	-33.26337	496.17365	687.59259	-44.33167	601.24017	-1.41025	1395.02991	-819.83984	
2636	26.350	-796.38965	72.96636	-632.94800	774.54724	70.61582	-610.09216	-727.54584	-33.02520	496.07562	687.14276	-43.93061	601.29443	-1.50409	1394.79468	-820.30298	
2637	26.360	-796.64935	72.77372	-633.20209	774.35657	70.42652	-610.13074	-727.79236	-32.82802	495.95770	686.79999	-43.83948	601.27325	-1.66507	1394.51184	-820.87451	
2638	26.370	-796.90173	72.53569	-633.34540	774.14490	70.18260	-610.13354	-728.02362	-32.72965	495.89227	686.58899	-43.65450	601.25305	-1.94851	1394.30481	-821.44696	
2639	26.380	-797.00616	72.32034	-633.38086	773.92999	69.97068	-610.25995	-728.21844	-32.56599	495.88855	686.42090	-43.42638	601.12970	-2.05229	1394.02795	-821.96564	
2640	26.390	-797.09119	72.12530	-633.40662	773.74915	69.69373	-610.44373	-728.37836	-32.44529	495.85596	686.21246	-43.19253	600.99329	-2.14272	1393.68787	-822.55225	
2641	26.400	-796.83649	71.60407	-633.04791	773.63861	69.40263	-610.58612	-728.50793	-32.28980	495.83374	686.26697	-43.04041	600.93579	-2.38757	1393.34167	-823.44751	
2642	26.410	-796.90936	71.16497	-633.02142	773.41125	69.08697	-610.75269	-728.64441	-32.11931	495.81833	686.07996	-42.64326	600.99591	-2.65736	1393.03284	-823.88763	
2643	26.420	-797.16571	70.71830	-633.32263	773.26550	68.80330	-610.79944	-728.72394	-31.93173	495.73431	686.08252	-42.29478	600.98804	-2.66281	1392.50269	-824.50507	
2644	26.430	-797.48303	70.44299	-633.75818	773.12396	68.49500	-610.83423	-728.78503	-31.62951	495.65765	685.97717	-42.14528	600.87299	-2.81884	1392.14600	-825.36469	
2645	26.440	-797.50684	70.22976	-633.78009	772.97461	68.13942	-610.91223	-728.63538	-31.34696	495.61533	685.79120	-41.77731	600.91779	-2.86708	1391.72937	-826.09894	
2646	26.450	-797.61536	70.05834	-633.89081	772.90784	67.84589	-611.08899	-728.85889	-30.96478	495.60278	685.56671	-41.36952	600.85919	-3.25450	1391.25195	-826.84131	
2647	26.460	-797.72644	69.80289	-633.99963	772.90942	67.42229	-611.26147	-728.92474	-30.67867	495.45938	685.60004	-41.06949	600.83429	-3.19363	1390.68103	-827.89764	
2648	26.470	-797.74866	69.44517	-634.21503	772.88147	67.04365	-611.28900	-728.95789	-30.32914	495.33411	685.59326	-40.75776	600.72406	-3.11155	1390.26196	-828.63776	
2649	26.480	-797.93628	69.02770	-634.47980	772.78271	66.56194	-611.40106	-729.14423	-29.99334	495.29376	685.39600	-40.47850	600.45905	-3.12717	1389.61804	-829.84558	
2650	26.490	-798.02820	68.50859	-634.31989	772.76733	66.30727	-611.49341	-729.27332	-29.80097	495.29025	685.41217	-40.37302	600.38513	-3.06732	1389.21240	-830.70697	
2651	26.500	-798.09167	68.16196	-634.42340	772.76117	65.87241	-611.68115	-729.29761	-29.69989	495.27951	685.30316	-39.85038	600.46753	-3.34598	1388.71582	-831.91309	
2652	26.510	-798.01843	67.75404	-634.58691	772.73199	65.35871	-611.85803	-729.19177	-29.54666	495.16574	685.51080	-39.15844	600.37714	-3.49980	1387.93994	-832.87732	
2653	26.520	-797.86041	66.96206	-634.78351	772.72601	64.84164	-611.93201	-729.15765	-29.06307	495.00015	685.46973	-38.92878	600.32452	-3.30158	1387.25012	-833.85309	
2654	26.530	-797.92139	66.24821	-635.03320	772.76990	64.39272	-612.13269	-729.14111	-28.61490	494.74289	686.63000	-37.73660	600.35284	-3.19148	1386.64990	-835.11401	
2655	26.540	-797.94293	65.87306	-635.16864	772.67029	63.78506	-612.33618	-729.08209	-28.13081	494.70517	685.59491	-37.79850	600.15894	-3.28163	1385.98425	-836.21002	
2656	26.550	-797.94116	65.51849	-635.34180	772.71826	63.24386	-612.43176	-729.13220	-27.63721	494.65552	685.58569	-37.62216	600.10846	-3.26233	1385.32910	-837.30017	
2657	26.560	-797.97333	64.91218	-635.66193	772.69275	62.73192	-612.76337	-729.26593	-27.21766	494.56277	685.37762	-37.10509	600.00525	-2.95901	1384.63184	-838.75360	
2658	26.570	-797.91919	64.39845	-635.85809	772.69110	62.23614	-612.96906	-729.32440	-26.95609	494.52112	685.45673	-36.32148	599.72394	-2.94697	1383.65112	-840.04749	
2659	26.580	-797.91492	63.99345	-636.04028	772.71088	61.62564	-613.16864	-729.27948	-26.58240	494.36493	685.30713	-36.27367	599.80853	-3.40075	1382.85059	-841.42322	
2660	26.590	-797.78204	63.16974	-636.01849	772.71387	61.03579	-613.39471	-729.23602	-26.09913	494.18597	685.66724	-35.51696	599.72192	-3.01407	1382.00391	-843.19086	
2661	26.600	-797.80682	62.43447	-636.34015	772.89331	60.35094	-613.54907	-729.08130	-25.61797	494.05692	685.69232	-34.88729	599.56525	-2.83882	1381.26636	-844.75641	
2662	26.610	-797.39777	61.54462	-636.80890	773.05933	59.69099	-613.72614	-728.85596	-25.23453	494.06757	685.79510	-34.51586	599.45105	-2.77194	1380.36865	-846.24451	
2663	26.620	-797.08221	60.92139	-637.15900	773.15009	59.00687	-613.96075	-728.75189	-24.51689	493.86765	685.93860	-34.25167	599.39990	-2.85759	1379.54248	-847.73541	
2664	26.630	-796.78412	60.68401	-637.00000	773.45728	58.37742	-614.14783	-728.64020	-23.98952	493.81628	686.32135	-33.39915	599.26904	-2.88424	1378.36755	-849.29230	
2665	26.640	-797.02972	59.96078	-637.79596	773.71564	57.61257	-614.38171	-728.36987	-23.63968	493.65097	686.41125	-32.58455	599.05878	-1.98308	1377.39514	-851.18256	
2666	26.650	-796.73981	58.87682	-637.61340	773.84430	56.85851	-614.56976	-728.09424	-23.22688	493.59314	686.59961	-32.22618	598.83984	-2.05461	1376.55188	-852.65277	
2667	26.660	-796.57758	58.23882	-637.68976	774.10156	56.14708	-614.79309	-727.99652	-22.80421	493.46695	686.52917	-31.77218	598.70087	-1.47868	1375.56348	-854.56079	
